<?xml version="1.0"?>


<svg xmlns:dc="http://purl.org/dc/elements/1.1/" xmlns:cc="http://creativecommons.org/ns#" xmlns:rdf="http://www.w3.org/1999/02/22-rdf-syntax-ns#" xmlns:svg="http://www.w3.org/2000/svg" xmlns="http://www.w3.org/2000/svg" xmlns:sodipodi="http://sodipodi.sourceforge.net/DTD/sodipodi-0.dtd" xmlns:inkscape="http://www.inkscape.org/namespaces/inkscape" width="36.514896" height="116.63752" viewBox="0 0 9.6612326 30.860344" version="1.1" id="svg23489">
  <defs id="defs23483">
    <clipPath clipPathUnits="userSpaceOnUse" id="clipPath11305">
      <rect y="626.87799" x="5472.7285" height="32.807533" width="8.4722748" id="rect11307" style="opacity:0.4;color:#000000;fill:#452919;fill-opacity:1;fill-rule:nonzero;stroke:none;stroke-width:12;marker:none;visibility:visible;display:inline;overflow:visible;enable-background:accumulate"></rect>
    </clipPath>
    <clipPath clipPathUnits="userSpaceOnUse" id="clipPath11309">
      <rect y="626.87799" x="5549.8804" height="32.807533" width="8.4722748" id="rect11311" style="opacity:0.4;color:#000000;fill:#452919;fill-opacity:1;fill-rule:nonzero;stroke:none;stroke-width:12;marker:none;visibility:visible;display:inline;overflow:visible;enable-background:accumulate"></rect>
    </clipPath>
    <clipPath clipPathUnits="userSpaceOnUse" id="clipPath11313">
      <rect style="opacity:0.4;color:#000000;fill:#452919;fill-opacity:1;fill-rule:nonzero;stroke:none;stroke-width:12;marker:none;visibility:visible;display:inline;overflow:visible;enable-background:accumulate" id="rect11315" width="8.4722748" height="32.807533" x="5624.5083" y="626.87799"></rect>
    </clipPath>
    <clipPath clipPathUnits="userSpaceOnUse" id="clipPath11305-7">
      <rect y="626.87799" x="5472.7285" height="32.807533" width="8.4722748" id="rect11307-5" style="opacity:0.4;color:#000000;fill:#452919;fill-opacity:1;fill-rule:nonzero;stroke:none;stroke-width:12;marker:none;visibility:visible;display:inline;overflow:visible;enable-background:accumulate"></rect>
    </clipPath>
    <clipPath clipPathUnits="userSpaceOnUse" id="clipPath11309-0">
      <rect y="626.87799" x="5549.8804" height="32.807533" width="8.4722748" id="rect11311-0" style="opacity:0.4;color:#000000;fill:#452919;fill-opacity:1;fill-rule:nonzero;stroke:none;stroke-width:12;marker:none;visibility:visible;display:inline;overflow:visible;enable-background:accumulate"></rect>
    </clipPath>
    <clipPath clipPathUnits="userSpaceOnUse" id="clipPath11313-2">
      <rect style="opacity:0.4;color:#000000;fill:#452919;fill-opacity:1;fill-rule:nonzero;stroke:none;stroke-width:12;marker:none;visibility:visible;display:inline;overflow:visible;enable-background:accumulate" id="rect11315-0" width="8.4722748" height="32.807533" x="5624.5083" y="626.87799"></rect>
    </clipPath>
  </defs>
  <namedview id="base" pagecolor="#7d848b" bordercolor="#666666" borderopacity="1.0" showgrid="false" showborder="true" units="px" guidetolerance="28" fit-margin-top="0" fit-margin-left="0" fit-margin-right="0" fit-margin-bottom="0">
    <grid type="xygrid" id="grid24034" spacingx="1px" spacingy="1px" empspacing="8" visible="true" enabled="true" snapvisiblegridlinesonly="true" originx="-218.61242px" originy="-362.52164px"></grid>
  </namedview>
  <metadata id="metadata23486">
    <RDF>
      <Work>
        <format>image/svg+xml</format>
        <type></type>
        <title></title>
        <license></license>
        <creator>
          <Agent>
            <title>Robert Brooks</title>
          </Agent>
        </creator>
      </Work>
    </RDF>
  </metadata>
  <g id="layer1" transform="translate(-57.841204,-170.22245)">
    <g id="g11693" transform="matrix(1.1403318,0,0,1.1403318,-6145.2681,-540.63804)">
      <path style="opacity:0;color:#000000;fill:#452919;fill-opacity:1;fill-rule:nonzero;stroke:none;stroke-width:12;marker:none;visibility:visible;display:inline;overflow:visible;enable-background:accumulate" d="m 5439.7407,623.3804 8.4723,0 0,27.0626 -8.4723,0 z" id="rect11695"></path>
      <g clip-path="url(#clipPath11305-7)" transform="translate(-32.987793,-6.1288796)" id="g11697">
        <g transform="translate(579.46426,-108.39304)" id="g11699">
          <g id="g11701" transform="translate(208.02107,88.714869)">
            <path id="path11709" transform="matrix(0.26458334,0,0,0.26458334,-756.37262,164.10343)" d="m 20594,1857.9375 c -3.202,0 -5.781,2.5785 -5.781,5.7813 l 0,45.2187 c 0,3.2027 2.579,5.7813 5.781,5.7813 l 4.75,0 0,-56.7813 -4.75,0 z" style="color:#000000;fill:#693f27;fill-opacity:1;fill-rule:nonzero;stroke:none;stroke-width:12;marker:none;visibility:visible;display:inline;overflow:visible;enable-background:accumulate"></path>
            <path id="path11711" transform="matrix(0.26458334,0,0,0.26458334,-756.37262,164.10343)" d="m 20593.406,1857.9688 c -2.923,0.295 -5.187,2.7787 -5.187,5.7812 l 0,10 c 0.295,-2.9222 2.779,-5.1875 5.781,-5.1875 l 4.75,0 0,-10.5937 -4.781,0 c -0.2,0 -0.369,-0.02 -0.563,0 z" style="color:#000000;fill:#452919;fill-opacity:1;fill-rule:nonzero;stroke:none;stroke-width:12;marker:none;visibility:visible;display:inline;overflow:visible;enable-background:accumulate"></path>
            <path id="path11713" transform="matrix(0.26458334,0,0,0.26458334,-756.37262,164.10343)" d="m 20588.188,1902.375 0,6.5625 c 0,3.2027 2.579,5.7813 5.781,5.7813 l 4.781,0 0,-12.3438 -10.562,0 z" style="opacity:0.4;color:#000000;fill:#452919;fill-opacity:1;fill-rule:nonzero;stroke:none;stroke-width:15;marker:none;visibility:visible;display:inline;overflow:visible;enable-background:accumulate"></path>
          </g>
        </g>
        <g id="g11715" transform="translate(10.941091,-56.187345)">
          <path id="path11717" transform="matrix(0.26458334,0,0,0.26458334,20.171616,200.61261)" d="m 20593.969,1857.9375 c -1.801,0 -3.41,0.8099 -4.469,2.0937 0,0.015 -0.03,0.047 -0.03,0.063 -0.769,2.0636 -1.281,3.4345 -1.281,3.625 l 0,45.2187 c 0,0.4003 0.05,0.7792 0.124,1.1563 0.08,0.3771 0.197,0.7476 0.344,1.0937 0.148,0.3462 0.321,0.6611 0.532,0.9687 0.154,0.2348 0.321,0.4473 0.5,0.6563 0.124,0.1398 0.264,0.2794 0.406,0.4063 0.06,0.06 0.119,0.1311 0.187,0.1874 l 0.06,0 c 0.14,0.1115 0.26,0.2135 0.406,0.3126 0,0.011 0.03,0 0.03,0 0.148,0.099 0.314,0.2274 0.469,0.3124 0.329,0.1777 0.669,0.3252 1.031,0.4376 0.182,0.056 0.375,0.087 0.563,0.125 0.09,0.019 0.183,0.048 0.281,0.062 0.09,0.015 0.187,0.024 0.281,0.031 0.197,0.019 0.39,0.031 0.594,0.031 l 4.75,0 0,-56.7813 -4.75,0 -0.03,0 z" style="color:#000000;fill:#00ccff;fill-opacity:1;fill-rule:nonzero;stroke:none;stroke-width:12;marker:none;visibility:visible;display:inline;overflow:visible;enable-background:accumulate"></path>
          <path id="path11719" transform="matrix(0.26458334,0,0,0.26458334,20.171616,200.61261)" d="m 20588.188,1900.0938 0,8.8437 c 0,0.4003 0.05,0.7792 0.124,1.1563 0.08,0.3771 0.197,0.7476 0.344,1.0937 0.148,0.3462 0.321,0.6611 0.532,0.9687 0.154,0.2348 0.317,0.4473 0.5,0.6563 0.124,0.1398 0.264,0.2794 0.406,0.4063 0.06,0.06 0.15,0.1308 0.218,0.1874 0,0 0.03,-0.011 0.03,0 0.14,0.1115 0.26,0.2135 0.406,0.3126 0,0.011 0.03,0 0.03,0 0.148,0.099 0.314,0.2274 0.469,0.3124 0.329,0.1777 0.669,0.3252 1.031,0.4376 0.182,0.056 0.375,0.087 0.563,0.125 0.09,0.019 0.183,0.048 0.281,0.062 0.09,0.015 0.187,0.024 0.281,0.031 0.197,0.019 0.39,0.031 0.594,0.031 l 4.75,0 0,-8.8438 -4.719,0 c -0.204,0 -0.397,-0.012 -0.593,-0.031 -0.09,-0.011 -0.191,-0.016 -0.282,-0.031 -0.1,-0.015 -0.187,-0.044 -0.281,-0.062 -0.189,-0.039 -0.381,-0.069 -0.563,-0.125 -0.362,-0.1119 -0.706,-0.26 -1.031,-0.4375 -0.158,-0.085 -0.321,-0.2135 -0.469,-0.3125 l -0.06,0 c -0.147,-0.099 -0.268,-0.201 -0.406,-0.3125 l -0.03,0 c -0.07,-0.056 -0.123,-0.1278 -0.187,-0.1875 -0.144,-0.127 -0.284,-0.2664 -0.406,-0.4062 -0.178,-0.2091 -0.348,-0.4216 -0.5,-0.6563 -0.212,-0.3077 -0.384,-0.6224 -0.531,-0.9687 -0.148,-0.3463 -0.261,-0.7166 -0.344,-1.0938 -0.08,-0.3772 -0.125,-0.756 -0.125,-1.1562 l -0.03,0 z" style="opacity:0.61504421;color:#000000;fill:#008aec;fill-opacity:1;fill-rule:nonzero;stroke:none;stroke-width:12;marker:none;visibility:visible;display:inline;overflow:visible;enable-background:accumulate"></path>
          <path id="path11721" transform="matrix(0.26458334,0,0,0.26458334,20.171616,200.61261)" d="m 20593.969,1857.9375 c -1.801,0 -3.41,0.8098 -4.469,2.0937 0,0.015 -0.03,0.047 -0.03,0.063 -1.309,1.2538 -1.281,3.2739 -1.281,3.625 l 0,45.2187 c 0,0.4003 0.05,0.7792 0.124,1.1563 0,0.042 0.03,0.084 0.03,0.125 l 1.844,-41.7188 c 0,-4.577 3.98,-5.7812 5.781,-5.7812 l 2.781,0 0,-4.7813 -4.781,0 z" style="color:#000000;fill:#00ffff;fill-opacity:1;fill-rule:nonzero;stroke:none;stroke-width:12;marker:none;visibility:visible;display:inline;overflow:visible;enable-background:accumulate"></path>
        </g>
      </g>
    </g>
  </g>
</svg>