<?xml version="1.0"?>


<svg xmlns:dc="http://purl.org/dc/elements/1.1/" xmlns:cc="http://creativecommons.org/ns#" xmlns:rdf="http://www.w3.org/1999/02/22-rdf-syntax-ns#" xmlns:svg="http://www.w3.org/2000/svg" xmlns="http://www.w3.org/2000/svg" xmlns:sodipodi="http://sodipodi.sourceforge.net/DTD/sodipodi-0.dtd" xmlns:inkscape="http://www.inkscape.org/namespaces/inkscape" width="36.514896" height="116.63751" viewBox="0 0 9.6612326 30.860342" version="1.1" id="svg23489">
  <defs id="defs23483">
    <clipPath clipPathUnits="userSpaceOnUse" id="clipPath11305">
      <rect y="626.87799" x="5472.7285" height="32.807533" width="8.4722748" id="rect11307" style="opacity:0.4;color:#000000;fill:#452919;fill-opacity:1;fill-rule:nonzero;stroke:none;stroke-width:12;marker:none;visibility:visible;display:inline;overflow:visible;enable-background:accumulate"></rect>
    </clipPath>
    <clipPath clipPathUnits="userSpaceOnUse" id="clipPath11309">
      <rect y="626.87799" x="5549.8804" height="32.807533" width="8.4722748" id="rect11311" style="opacity:0.4;color:#000000;fill:#452919;fill-opacity:1;fill-rule:nonzero;stroke:none;stroke-width:12;marker:none;visibility:visible;display:inline;overflow:visible;enable-background:accumulate"></rect>
    </clipPath>
    <clipPath clipPathUnits="userSpaceOnUse" id="clipPath11313">
      <rect style="opacity:0.4;color:#000000;fill:#452919;fill-opacity:1;fill-rule:nonzero;stroke:none;stroke-width:12;marker:none;visibility:visible;display:inline;overflow:visible;enable-background:accumulate" id="rect11315" width="8.4722748" height="32.807533" x="5624.5083" y="626.87799"></rect>
    </clipPath>
  </defs>
  <namedview id="base" pagecolor="#7d848b" bordercolor="#666666" borderopacity="1.0" showgrid="false" showborder="true" units="px" guidetolerance="28" fit-margin-top="0" fit-margin-left="0" fit-margin-right="0" fit-margin-bottom="0">
    <grid type="xygrid" id="grid24034" spacingx="1px" spacingy="1px" empspacing="8" visible="true" enabled="true" snapvisiblegridlinesonly="true" originx="-181.32363px" originy="-422.01363px"></grid>
  </namedview>
  <metadata id="metadata23486">
    <RDF>
      <Work>
        <format>image/svg+xml</format>
        <type></type>
        <title></title>
        <license></license>
        <creator>
          <Agent>
            <title>Robert Brooks</title>
          </Agent>
        </creator>
      </Work>
    </RDF>
  </metadata>
  <g id="layer1" transform="translate(-47.97521,-154.48187)">
    <g transform="matrix(1.1403318,0,0,1.1403318,-6155.1341,-556.37862)" id="g11483">
      <path style="opacity:0;color:#000000;fill:#452919;fill-opacity:1;fill-rule:nonzero;stroke:none;stroke-width:12;marker:none;visibility:visible;display:inline;overflow:visible;enable-background:accumulate" d="m 5439.7407,623.3804 8.4723,0 0,27.0626 -8.4723,0 z" id="rect11485"></path>
      <g id="g11487" transform="translate(-32.987793,-6.1288796)" clip-path="url(#clipPath11305)">
        <g id="g11489" transform="translate(579.46426,-108.39304)">
          <g transform="translate(208.02107,88.714869)" id="g11491">
            <path style="opacity:0.2035398;color:#000000;fill:#572e16;fill-opacity:1;fill-rule:nonzero;stroke:#ffffff;stroke-width:12;stroke-miterlimit:4;stroke-opacity:1;stroke-dasharray:none;marker:none;visibility:visible;display:inline;overflow:visible;enable-background:accumulate" d="m 20595.344,1884.5 c -3.202,0 -5.782,2.5786 -5.782,5.7812 l 0,28.875 c 0,3.2027 2.58,5.7813 5.782,5.7813 l 3.406,0 0,-40.4375 -3.406,0 z" transform="matrix(0.26458334,0,0,0.26458334,-756.37262,164.10343)" id="path11493"></path>
            <path style="opacity:0.2035398;color:#000000;fill:#572e16;fill-opacity:1;fill-rule:nonzero;stroke:#000000;stroke-width:12;stroke-miterlimit:4;stroke-opacity:1;stroke-dasharray:none;marker:none;visibility:visible;display:inline;overflow:visible;enable-background:accumulate" d="m 20594,1847.7188 c -3.202,0 -5.781,2.5785 -5.781,5.7812 l 0,28.875 c 0,3.2027 2.579,5.7812 5.781,5.7812 l 4.75,0 0,-40.4374 -4.75,0 z" transform="matrix(0.26458334,0,0,0.26458334,-756.37262,164.10343)" id="path11495"></path>
            <path style="color:#000000;fill:#572e16;fill-opacity:1;fill-rule:nonzero;stroke:#2e1a0e;stroke-width:15;stroke-linejoin:round;stroke-miterlimit:4;stroke-opacity:1;stroke-dasharray:none;marker:none;visibility:visible;display:inline;overflow:visible;enable-background:accumulate" d="m 20594,1857.9375 c -3.202,0 -5.781,2.5785 -5.781,5.7813 l 0,45.2187 c 0,3.2027 2.579,5.7813 5.781,5.7813 l 4.75,0 0,-56.7813 -4.75,0 z" transform="matrix(0.26458334,0,0,0.26458334,-756.37262,164.10343)" id="path11497"></path>
            <path style="color:#000000;fill:#693f27;fill-opacity:1;fill-rule:nonzero;stroke:none;stroke-width:12;marker:none;visibility:visible;display:inline;overflow:visible;enable-background:accumulate" d="m 20594,1857.9375 c -3.202,0 -5.781,2.5785 -5.781,5.7813 l 0,45.2187 c 0,3.2027 2.579,5.7813 5.781,5.7813 l 4.75,0 0,-56.7813 -4.75,0 z" transform="matrix(0.26458334,0,0,0.26458334,-756.37262,164.10343)" id="path11499"></path>
            <path style="color:#000000;fill:#452919;fill-opacity:1;fill-rule:nonzero;stroke:none;stroke-width:12;marker:none;visibility:visible;display:inline;overflow:visible;enable-background:accumulate" d="m 20593.406,1857.9688 c -2.923,0.295 -5.187,2.7787 -5.187,5.7812 l 0,10 c 0.295,-2.9222 2.779,-5.1875 5.781,-5.1875 l 4.75,0 0,-10.5937 -4.781,0 c -0.2,0 -0.369,-0.02 -0.563,0 z" transform="matrix(0.26458334,0,0,0.26458334,-756.37262,164.10343)" id="path11501"></path>
            <path style="opacity:0.4;color:#000000;fill:#452919;fill-opacity:1;fill-rule:nonzero;stroke:none;stroke-width:15;marker:none;visibility:visible;display:inline;overflow:visible;enable-background:accumulate" d="m 20588.188,1902.375 0,6.5625 c 0,3.2027 2.579,5.7813 5.781,5.7813 l 4.781,0 0,-12.3438 -10.562,0 z" transform="matrix(0.26458334,0,0,0.26458334,-756.37262,164.10343)" id="path11503"></path>
          </g>
        </g>
        <g transform="translate(10.941091,-56.187345)" id="g11505"></g>
      </g>
    </g>
  </g>
</svg>