<?xml version="1.0"?>


<svg xmlns:dc="http://purl.org/dc/elements/1.1/" xmlns:cc="http://creativecommons.org/ns#" xmlns:rdf="http://www.w3.org/1999/02/22-rdf-syntax-ns#" xmlns:svg="http://www.w3.org/2000/svg" xmlns="http://www.w3.org/2000/svg" xmlns:sodipodi="http://sodipodi.sourceforge.net/DTD/sodipodi-0.dtd" xmlns:inkscape="http://www.inkscape.org/namespaces/inkscape" width="36.515827" height="116.63752" viewBox="0 0 9.6614789 30.860344" version="1.1" id="svg23489">
  <defs id="defs23483">
    <clipPath clipPathUnits="userSpaceOnUse" id="clipPath11305">
      <rect y="626.87799" x="5472.7285" height="32.807533" width="8.4722748" id="rect11307" style="opacity:0.4;color:#000000;fill:#452919;fill-opacity:1;fill-rule:nonzero;stroke:none;stroke-width:12;marker:none;visibility:visible;display:inline;overflow:visible;enable-background:accumulate"></rect>
    </clipPath>
    <clipPath clipPathUnits="userSpaceOnUse" id="clipPath11309">
      <rect y="626.87799" x="5549.8804" height="32.807533" width="8.4722748" id="rect11311" style="opacity:0.4;color:#000000;fill:#452919;fill-opacity:1;fill-rule:nonzero;stroke:none;stroke-width:12;marker:none;visibility:visible;display:inline;overflow:visible;enable-background:accumulate"></rect>
    </clipPath>
    <clipPath clipPathUnits="userSpaceOnUse" id="clipPath11313">
      <rect style="opacity:0.4;color:#000000;fill:#452919;fill-opacity:1;fill-rule:nonzero;stroke:none;stroke-width:12;marker:none;visibility:visible;display:inline;overflow:visible;enable-background:accumulate" id="rect11315" width="8.4722748" height="32.807533" x="5624.5083" y="626.87799"></rect>
    </clipPath>
    <clipPath clipPathUnits="userSpaceOnUse" id="clipPath11305-7">
      <rect y="626.87799" x="5472.7285" height="32.807533" width="8.4722748" id="rect11307-5" style="opacity:0.4;color:#000000;fill:#452919;fill-opacity:1;fill-rule:nonzero;stroke:none;stroke-width:12;marker:none;visibility:visible;display:inline;overflow:visible;enable-background:accumulate"></rect>
    </clipPath>
    <clipPath clipPathUnits="userSpaceOnUse" id="clipPath11309-0">
      <rect y="626.87799" x="5549.8804" height="32.807533" width="8.4722748" id="rect11311-0" style="opacity:0.4;color:#000000;fill:#452919;fill-opacity:1;fill-rule:nonzero;stroke:none;stroke-width:12;marker:none;visibility:visible;display:inline;overflow:visible;enable-background:accumulate"></rect>
    </clipPath>
    <clipPath clipPathUnits="userSpaceOnUse" id="clipPath11313-2">
      <rect style="opacity:0.4;color:#000000;fill:#452919;fill-opacity:1;fill-rule:nonzero;stroke:none;stroke-width:12;marker:none;visibility:visible;display:inline;overflow:visible;enable-background:accumulate" id="rect11315-0" width="8.4722748" height="32.807533" x="5624.5083" y="626.87799"></rect>
    </clipPath>
  </defs>
  <namedview id="base" pagecolor="#7d848b" bordercolor="#666666" borderopacity="1.0" showgrid="false" showborder="true" units="px" guidetolerance="28" fit-margin-top="0" fit-margin-left="0" fit-margin-right="0" fit-margin-bottom="0">
    <grid type="xygrid" id="grid24034" spacingx="1px" spacingy="1px" empspacing="8" visible="true" enabled="true" snapvisiblegridlinesonly="true" originx="-323.8396px" originy="-362.52163px"></grid>
  </namedview>
  <metadata id="metadata23486">
    <RDF>
      <Work>
        <format>image/svg+xml</format>
        <type></type>
        <title></title>
        <license></license>
        <creator>
          <Agent>
            <title>Robert Brooks</title>
          </Agent>
        </creator>
      </Work>
    </RDF>
  </metadata>
  <g id="layer1" transform="translate(-85.682562,-170.22245)">
    <g id="g11631" transform="matrix(1.1403318,0,0,1.1403318,-6150.5214,-540.63804)">
      <g transform="translate(-156.28643,0)" id="g11633">
        <path style="opacity:0;color:#000000;fill:#452919;fill-opacity:1;fill-rule:nonzero;stroke:none;stroke-width:12;marker:none;visibility:visible;display:inline;overflow:visible;enable-background:accumulate" d="m 5625.0493,623.3804 8.4723,0 0,27.0626 -8.4723,0 z" id="rect11635"></path>
        <g id="g11637" transform="translate(0.5407835,-6.1288796)" clip-path="url(#clipPath11313-2)">
          <g id="g11639" transform="translate(579.46426,-108.39304)">
            <g transform="translate(208.02107,88.714869)" id="g11641">
              <path id="path11649" transform="matrix(0.26458334,0,0,0.26458334,-605.04474,95.291048)" d="m 20568.438,2118.0312 0,56.75 10.531,0 c 3.203,0 5.781,-2.5785 5.781,-5.7812 l 0,-45.1875 c 0,-3.2027 -2.578,-5.7813 -5.781,-5.7813 l -10.531,0 z" style="color:#000000;fill:#693f27;fill-opacity:1;fill-rule:nonzero;stroke:none;stroke-width:12;marker:none;visibility:visible;display:inline;overflow:visible;enable-background:accumulate"></path>
              <path id="path11651" transform="matrix(0.26458334,0,0,0.26458334,-605.04474,95.291048)" d="m 20568.438,2118.0312 0,10.5938 10.531,0 c 3.202,0 5.781,2.5786 5.781,5.7812 l 0,-10.5937 c 0,-3.2027 -2.579,-5.7813 -5.781,-5.7813 l -10.531,0 z" style="color:#000000;fill:#452919;fill-opacity:1;fill-rule:nonzero;stroke:none;stroke-width:12;marker:none;visibility:visible;display:inline;overflow:visible;enable-background:accumulate"></path>
              <path id="path11653" transform="matrix(0.26458334,0,0,0.26458334,-605.04474,95.291048)" d="m 20568.438,2162.4375 0,12.3437 10.531,0 c 3.203,0 5.75,-2.5785 5.75,-5.7812 l 0,-6.5625 -16.281,0 z" style="opacity:0.4;color:#000000;fill:#452919;fill-opacity:1;fill-rule:nonzero;stroke:none;stroke-width:15;marker:none;visibility:visible;display:inline;overflow:visible;enable-background:accumulate"></path>
            </g>
          </g>
          <g transform="translate(10.941091,-56.187345)" id="g11655">
            <path id="path11657" transform="matrix(0.26458334,0,0,0.26458334,171.4995,131.80022)" d="m 20568.438,2118.0312 0,56.75 10.5,0 c 0.302,0 0.588,-0.023 0.874,-0.062 0.07,-0.011 0.147,-0.02 0.219,-0.031 0.212,-0.039 0.422,-0.094 0.625,-0.1563 0.17,-0.052 0.371,-0.1206 0.532,-0.1874 0,-0.011 0.06,0 0.06,0 0.09,-0.038 0.163,-0.083 0.25,-0.125 0.227,-0.1115 0.447,-0.2379 0.656,-0.375 0.42,-0.2748 0.792,-0.597 1.125,-0.9688 0.167,-0.186 0.33,-0.3852 0.469,-0.5938 0,-0.011 0.03,-0.02 0.03,-0.031 0.151,-0.226 0.284,-0.4665 0.407,-0.7188 0.12,-0.252 0.233,-0.516 0.312,-0.7812 0.113,-0.3625 0.181,-0.7354 0.219,-1.125 0.04,-0.195 0.03,-0.3935 0.03,-0.5938 l 0,-45.2187 c 0,-3.2027 -2.578,-5.7813 -5.781,-5.7813 l -10.531,0 z" style="color:#000000;fill:#00ccff;fill-opacity:1;fill-rule:nonzero;stroke:none;stroke-width:12;marker:none;visibility:visible;display:inline;overflow:visible;enable-background:accumulate"></path>
            <path id="path11659" transform="matrix(0.26458334,0,0,0.26458334,171.4995,131.80022)" d="m 20584.75,2160.7812 c -0.04,0.3896 -0.105,0.7626 -0.219,1.125 -0.08,0.2654 -0.191,0.5293 -0.312,0.7813 -0.121,0.2521 -0.258,0.4927 -0.407,0.7187 0,0.011 -0.06,0.02 -0.06,0.031 -0.14,0.2086 -0.273,0.4078 -0.438,0.5937 -0.332,0.372 -0.736,0.694 -1.156,0.9688 -0.208,0.1372 -0.429,0.2635 -0.656,0.375 -0.09,0.042 -0.128,0.087 -0.219,0.125 0,0 -0.06,0.02 -0.06,0.031 -0.159,0.067 -0.363,0.1354 -0.531,0.1876 -0.205,0.063 -0.414,0.1169 -0.626,0.1562 -0.07,0.011 -0.146,-0.011 -0.218,0 -0.287,0.04 -0.573,0.062 -0.875,0.062 l -10.531,0 0,8.8437 10.531,0 c 0.302,0 0.588,-0.023 0.875,-0.062 0.07,-0.011 0.147,-0.02 0.218,-0.031 0.212,-0.039 0.423,-0.063 0.626,-0.125 0.17,-0.052 0.37,-0.1206 0.531,-0.1875 0,-0.011 0.03,-0.028 0.03,-0.031 0.09,-0.038 0.163,-0.083 0.25,-0.125 0.227,-0.1115 0.447,-0.2379 0.656,-0.375 0.421,-0.2748 0.791,-0.597 1.125,-0.9688 0.167,-0.186 0.33,-0.3852 0.469,-0.5938 0,-0.011 0.03,-0.02 0.03,-0.031 0.151,-0.2264 0.284,-0.4665 0.407,-0.7188 0.12,-0.252 0.233,-0.516 0.312,-0.7812 0.113,-0.3628 0.181,-0.7354 0.219,-1.125 0.04,-0.195 0.03,-0.3935 0.03,-0.5938 l 0,-8.25 z" style="opacity:0.61504421;color:#000000;fill:#008aec;fill-opacity:1;fill-rule:nonzero;stroke:none;stroke-width:12;marker:none;visibility:visible;display:inline;overflow:visible;enable-background:accumulate"></path>
            <path id="path11661" transform="matrix(0.26458334,0,0,0.26458334,171.4995,131.80022)" d="m 20568.438,2118 0,4.7812 8.5,0 c 3.203,0 5.639,2.5817 5.781,5.7813 l 1.843,41.7187 c 0.05,-0.2271 0.103,-0.4492 0.126,-0.6874 0.04,-0.1951 0.03,-0.3936 0.03,-0.5938 l 0,-45.2188 c 0,-3.2026 -2.578,-5.7812 -5.781,-5.7812 l -10.5,0 z" style="color:#000000;fill:#00ffff;fill-opacity:1;fill-rule:nonzero;stroke:none;stroke-width:12;marker:none;visibility:visible;display:inline;overflow:visible;enable-background:accumulate"></path>
          </g>
        </g>
      </g>
    </g>
  </g>
</svg>